<?xml version="1.0" encoding="utf-8"?>
<!-- Generator: Adobe Illustrator 16.0.3, SVG Export Plug-In . SVG Version: 6.00 Build 0)  -->
<!DOCTYPE svg PUBLIC "-//W3C//DTD SVG 1.1//EN" "http://www.w3.org/Graphics/SVG/1.1/DTD/svg11.dtd">
<svg version="1.1" xmlns="http://www.w3.org/2000/svg" xmlns:xlink="http://www.w3.org/1999/xlink" x="0px" y="0px"
	 width="548.956px" height="180.785px" viewBox="0 0 548.956 180.785" enable-background="new 0 0 548.956 180.785"
	 xml:space="preserve">
<g id="hexagone">
</g>
<g id="circle">
</g>
<g id="blow_try_fail_1" display="none">
	<g display="inline">
		<g>
			<path fill="#AB9860" d="M-88.061-1.07c14.367,24.764,28.733,49.529,43.1,74.293c31.064,53.548,62.13,107.096,93.194,160.645
				c29.711,51.214,59.422,102.429,89.133,153.644c8.707,15.008,17.413,30.016,26.12,45.023c1.828,3.152,3.657,6.305,5.485,9.457
				c0.144,0.247,0.287,0.494,0.43,0.74c-0.428-0.738-0.713-3.147,0.051-4.463c-0.37,0.638-0.74,1.275-1.11,1.913
				c-18.021,31.066-36.044,62.131-54.066,93.198C82.263,588.561,50.25,643.742,18.237,698.925
				c-27.95,48.181-55.901,96.36-83.852,144.541c-7.482,12.897-14.964,25.794-22.446,38.691c-4.64,7.998,10.1,11.807,14.907,12.433
				c7.59,0.988,21.711,0.773,26.255-7.06c14.367-24.764,28.733-49.528,43.1-74.293c31.065-53.548,62.13-107.097,93.194-160.645
				c29.711-51.215,59.422-102.43,89.134-153.644c8.706-15.008,17.412-30.016,26.119-45.023c3.146-5.423,8.782-11.625,5.137-17.91
				c-17.558-30.266-35.116-60.532-52.674-90.798c-31.91-55.005-63.82-110.009-95.729-165.014
				C33.173,131.579,4.964,82.953-23.245,34.328C-31.13,20.737-39.014,7.146-46.898-6.444c-4.544-7.833-18.665-8.048-26.255-7.059
				C-77.96-12.877-92.701-9.068-88.061-1.07L-88.061-1.07z"/>
		</g>
	</g>
	<g display="inline">
		<g>
			<path fill="#E30613" d="M-99.707-263.957c0,191.468,0,382.937,0,574.405c0,191.597,0,383.194,0,574.792
				c0,97.602,0,195.202,0,292.804c0,6.449,10,6.449,10,0c0-9.111,0-18.223,0-27.333c0-6.449-10-6.449-10,0c0,0.444,0,0.889,0,1.333
				c0,6.449,10,6.449,10,0c0-0.444,0-0.889,0-1.333c0-6.449-10-6.449-10,0c0,9.11,0,18.222,0,27.333c0,6.449,10,6.449,10,0
				c0-191.468,0-382.937,0-574.404c0-191.598,0-383.195,0-574.792c0-97.601,0-195.203,0-292.804
				C-89.707-270.406-99.707-270.406-99.707-263.957L-99.707-263.957z"/>
		</g>
	</g>
</g>
<g id="blow_try_fail_2" display="none">
	<g display="inline">
		<g>
			<linearGradient id="SVGID_1_" gradientUnits="userSpaceOnUse" x1="60.0391" y1="883.0947" x2="60.039" y2="-6.0079">
				<stop  offset="0" style="stop-color:#CE9728"/>
				<stop  offset="0.15" style="stop-color:#A75B11"/>
				<stop  offset="0.3" style="stop-color:#E7B846"/>
				<stop  offset="0.4" style="stop-color:#FFEC7A"/>
				<stop  offset="0.55" style="stop-color:#E7B846"/>
				<stop  offset="0.7" style="stop-color:#CE9728"/>
				<stop  offset="0.85" style="stop-color:#FFE196"/>
				<stop  offset="1" style="stop-color:#F2B93A"/>
			</linearGradient>
			<path fill="url(#SVGID_1_)" d="M-82.944-3.869c14.367,24.765,28.733,49.529,43.1,74.293
				c31.064,53.548,62.13,107.097,93.194,160.645c29.711,51.214,59.422,102.429,89.133,153.643
				c8.706,15.008,17.413,30.016,26.119,45.023c1.829,3.152,3.657,6.305,5.486,9.457c1.206,2.078-0.26-0.851,0.479-2.126
				c-0.369,0.638-0.739,1.276-1.109,1.914c-18.022,31.066-36.044,62.131-54.066,93.197C87.38,587.359,55.367,642.541,23.354,697.723
				c-27.951,48.181-55.901,96.361-83.853,144.542c-7.482,12.897-14.964,25.794-22.446,38.69
				c-5.188,8.943,24.015,12.246,28.929,3.777c14.366-24.765,28.733-49.529,43.099-74.294
				c31.065-53.548,62.13-107.097,93.195-160.645c29.711-51.215,59.422-102.429,89.133-153.644
				c8.706-15.008,17.413-30.016,26.119-45.023c2.779-4.791,8.348-10.777,5.138-16.312c-17.559-30.266-35.117-60.532-52.675-90.798
				c-31.91-55.004-63.819-110.009-95.729-165.014C26.056,130.377-2.153,81.752-30.362,33.126
				C-38.247,19.536-46.131,5.945-54.015-7.646C-58.929-16.115-88.132-12.812-82.944-3.869L-82.944-3.869z"/>
		</g>
	</g>
</g>
<g id="blow" display="none">
	<g display="inline">
		<g>
			<path fill="#561D5E" d="M837.835,90.094c0,88.331,46.71,165.936,116.687,209.387l120.825-209.521L954.638-119.366
				C884.597-75.929,837.835,1.713,837.835,90.094z"/>
			<path fill="#561D5E" d="M817.08,202.894c-15.099-35.738-22.752-73.689-22.752-112.8c0-39.11,7.653-77.062,22.752-112.801
				c14.576-34.51,35.444-65.496,62.019-92.103c16.319-16.338,34.297-30.51,53.716-42.404l-0.284-0.493H646.885L504.067,89.959
				l142.817,247.66H932.53l0.169-0.291c-19.378-11.88-37.314-26.026-53.601-42.332C852.524,268.391,831.656,237.403,817.08,202.894z
				"/>
			<path opacity="0" fill="none" d="M837.835,90.094c0-88.381,46.762-166.022,116.803-209.46l-21.823-37.848
				c-19.419,11.894-37.396,26.066-53.716,42.404c-26.574,26.607-47.442,57.593-62.019,92.103
				c-15.099,35.739-22.752,73.691-22.752,112.801c0,39.111,7.653,77.063,22.752,112.8c14.576,34.509,35.444,65.497,62.019,92.103
				c16.286,16.305,34.223,30.452,53.601,42.332l21.822-37.847C884.545,256.029,837.835,178.425,837.835,90.094z"/>
		</g>
		<g>
			<g>
				<path fill="#AB9860" d="M937.283-232.809c10.415,17.982,20.836,35.96,31.253,53.938c22.525,38.875,45.051,77.753,67.579,116.628
					c21.546,37.182,43.087,74.363,64.634,111.544c6.313,10.897,12.624,21.791,18.936,32.687c1.329,2.289,2.656,4.578,3.982,6.866
					c0.876,1.509-0.19-0.617,0.347-1.542c-0.267,0.461-0.537,0.925-0.804,1.389c-13.069,22.553-26.136,45.106-39.206,67.66
					c-23.215,40.064-46.427,80.125-69.641,120.187c-20.268,34.978-40.535,69.958-60.805,104.937
					c-5.424,9.362-10.849,18.726-16.275,28.09c-3.764,6.492,17.411,8.892,20.976,2.741c10.418-17.979,20.836-35.958,31.255-53.936
					c22.522-38.876,45.051-77.753,67.577-116.629c21.548-37.181,43.091-74.363,64.635-111.544
					c6.313-10.895,12.63-21.792,18.938-32.685c2.016-3.48,6.055-7.826,3.728-11.844c-12.733-21.973-25.463-43.947-38.197-65.918
					c-23.14-39.934-46.277-79.868-69.416-119.8c-20.453-35.303-40.91-70.604-61.368-105.908
					c-5.716-9.866-11.434-19.733-17.151-29.599C954.694-241.697,933.52-239.299,937.283-232.809L937.283-232.809z"/>
			</g>
			<polyline opacity="0.7" fill="none" stroke="#AB9860" stroke-miterlimit="10" points="947.768,-234.177 1134.527,88.125 
				1134.527,88.642 947.768,410.945 			"/>
			<g opacity="0.4">
				<linearGradient id="SVGID_2_" gradientUnits="userSpaceOnUse" x1="1040.9531" y1="411.1279" x2="1040.9531" y2="-234.3606">
					<stop  offset="0" style="stop-color:#CE9728"/>
					<stop  offset="0.15" style="stop-color:#A75B11"/>
					<stop  offset="0.3" style="stop-color:#E7B846"/>
					<stop  offset="0.4" style="stop-color:#FFEC7A"/>
					<stop  offset="0.55" style="stop-color:#E7B846"/>
					<stop  offset="0.7" style="stop-color:#CE9728"/>
					<stop  offset="0.85" style="stop-color:#FFE196"/>
					<stop  offset="1" style="stop-color:#F2B93A"/>
				</linearGradient>
				<path fill="url(#SVGID_2_)" d="M937.283-232.737c10.415,17.978,20.836,35.958,31.253,53.937
					c22.525,38.876,45.051,77.752,67.579,116.628c21.546,37.181,43.087,74.363,64.634,111.545
					c6.313,10.896,12.624,21.791,18.936,32.686c1.329,2.288,2.656,4.578,3.982,6.865c0.902,1.555-0.194-0.749,0.347-1.682
					c-0.267,0.464-0.537,0.926-0.804,1.39c-13.069,22.553-26.136,45.108-39.206,67.661c-23.215,40.063-46.427,80.125-69.641,120.186
					c-20.268,34.979-40.535,69.958-60.805,104.937c-5.424,9.363-10.849,18.726-16.275,28.091c-3.95,6.814,17.281,9.255,20.976,2.881
					c10.418-17.98,20.836-35.959,31.255-53.938c22.522-38.876,45.051-77.752,67.577-116.629
					c21.548-37.181,43.091-74.362,64.635-111.543c6.313-10.896,12.63-21.791,18.938-32.688c2.041-3.522,6.094-7.896,3.728-11.981
					c-12.733-21.973-25.463-43.947-38.197-65.92c-23.14-39.934-46.277-79.866-69.416-119.798
					c-20.453-35.303-40.91-70.605-61.368-105.908c-5.716-9.866-11.434-19.733-17.151-29.6
					C954.564-241.994,933.333-239.552,937.283-232.737L937.283-232.737z"/>
			</g>
		</g>
	</g>
</g>
<g id="Warstwa_18" display="none">
	<rect x="-715.707" y="174.37" display="inline" fill="#009FE3" width="2768" height="164.84"/>
	<rect x="-712.966" y="-157.957" display="inline" fill="#951B81" width="2763.259" height="334.5"/>
</g>
<g id="blow_1">
</g>
<g id="blow_2_WH_background">
</g>
<g id="blow_2">
</g>
<g id="blow_2_kopia" display="none">
	<g display="inline">
		<g>
			<path fill="#561D5E" d="M969.868,173.47c0,58.863-30.727,110.577-76.752,139.534L813.642,173.38l79.397-139.493
				C939.108,62.833,969.868,114.574,969.868,173.47z"/>
			<path fill="#561D5E" d="M983.519,248.639c9.93-23.815,14.966-49.106,14.966-75.169c0-26.062-5.036-51.354-14.966-75.169
				c-9.587-22.998-23.316-43.646-40.794-61.376c-10.734-10.888-22.557-20.333-35.331-28.258l0.187-0.329h187.887l93.938,165.042
				l-93.938,165.039H907.58l-0.109-0.193c12.743-7.917,24.541-17.344,35.254-28.209
				C960.202,292.286,973.932,271.637,983.519,248.639z"/>
			<path opacity="0" fill="none" d="M969.868,173.47c0-58.896-30.76-110.637-76.829-139.583l14.354-25.221
				c12.774,7.925,24.597,17.371,35.331,28.258c17.478,17.73,31.207,38.378,40.794,61.376c9.93,23.816,14.966,49.107,14.966,75.169
				c0,26.063-5.036,51.354-14.966,75.169c-9.587,22.998-23.316,43.646-40.794,61.376c-10.713,10.866-22.511,20.293-35.254,28.209
				l-14.354-25.221C939.142,284.047,969.868,232.333,969.868,173.47z"/>
		</g>
		<g>
			<g>
				<path fill="#AB9860" d="M904.453-40.718c-6.849,11.981-13.705,23.963-20.555,35.944c-14.817,25.906-29.633,51.813-44.452,77.72
					c-14.172,24.776-28.342,49.555-42.512,74.331c-4.154,7.263-8.304,14.522-12.456,21.783c-0.873,1.526-1.746,3.051-2.619,4.576
					c-0.575,1.005,0.124-0.412-0.227-1.029c0.176,0.308,0.351,0.617,0.526,0.925c8.598,15.031,17.19,30.059,25.788,45.089
					c15.271,26.699,30.537,53.395,45.808,80.093c13.33,23.307,26.661,46.619,39.994,69.929c3.566,6.238,7.134,12.478,10.704,18.719
					c2.479,4.325-11.453,5.924-13.796,1.827c-6.853-11.982-13.702-23.962-20.557-35.943c-14.814-25.906-29.633-51.815-44.451-77.721
					c-14.172-24.777-28.342-49.556-42.514-74.333c-4.152-7.26-8.308-14.522-12.452-21.781c-1.33-2.32-3.988-5.216-2.455-7.894
					c8.374-14.644,16.748-29.286,25.123-43.927c15.221-26.611,30.44-53.223,45.659-79.833c13.455-23.525,26.907-47.05,40.366-70.576
					c3.758-6.575,7.521-13.15,11.28-19.725C893-46.642,906.932-45.046,904.453-40.718L904.453-40.718z"/>
			</g>
			<polyline opacity="0.7" fill="none" stroke="#AB9860" stroke-width="0.6621" stroke-miterlimit="10" points="897.559,-41.631 
				774.715,173.148 774.715,173.492 897.559,388.273 			"/>
			<g opacity="0.4">
				
					<linearGradient id="SVGID_3_" gradientUnits="userSpaceOnUse" x1="382.5684" y1="388.3945" x2="382.5683" y2="-41.7531" gradientTransform="matrix(-1 0 0 1 1218.832 0)">
					<stop  offset="0" style="stop-color:#CE9728"/>
					<stop  offset="0.15" style="stop-color:#A75B11"/>
					<stop  offset="0.3" style="stop-color:#E7B846"/>
					<stop  offset="0.4" style="stop-color:#FFEC7A"/>
					<stop  offset="0.55" style="stop-color:#E7B846"/>
					<stop  offset="0.7" style="stop-color:#CE9728"/>
					<stop  offset="0.85" style="stop-color:#FFE196"/>
					<stop  offset="1" style="stop-color:#F2B93A"/>
				</linearGradient>
				<path fill="url(#SVGID_3_)" d="M904.453-40.672c-6.849,11.981-13.705,23.963-20.555,35.944
					c-14.817,25.906-29.633,51.813-44.452,77.72c-14.172,24.776-28.342,49.555-42.512,74.332
					c-4.154,7.261-8.304,14.522-12.456,21.782c-0.873,1.525-1.746,3.051-2.619,4.574c-0.592,1.036,0.126-0.499-0.227-1.122
					c0.176,0.31,0.351,0.617,0.526,0.927c8.598,15.029,17.19,30.06,25.788,45.089c15.271,26.697,30.537,53.395,45.808,80.09
					c13.33,23.31,26.661,46.619,39.994,69.93c3.566,6.24,7.134,12.478,10.704,18.719c2.6,4.541-11.365,6.167-13.796,1.92
					c-6.853-11.981-13.702-23.963-20.557-35.943c-14.814-25.908-29.633-51.814-44.451-77.722
					c-14.172-24.778-28.342-49.555-42.514-74.331c-4.152-7.262-8.308-14.522-12.452-21.784c-1.348-2.347-4.013-5.261-2.455-7.984
					c8.374-14.642,16.748-29.287,25.123-43.927c15.221-26.613,30.44-53.223,45.659-79.833
					c13.455-23.526,26.907-47.051,40.366-70.577c3.758-6.575,7.521-13.149,11.28-19.724
					C893.088-46.84,907.053-45.214,904.453-40.672L904.453-40.672z"/>
			</g>
		</g>
	</g>
</g>
<g id="blow_2_WH_over_x3B_ay" display="none">
	<g display="inline" opacity="0.5">
		<g>
			<path fill="#FFFFFF" d="M969.868,173.47c0,58.863-30.727,110.577-76.752,139.534L813.642,173.38l79.397-139.493
				C939.108,62.833,969.868,114.574,969.868,173.47z"/>
			<path fill="#FFFFFF" d="M983.519,248.639c9.93-23.815,14.966-49.106,14.966-75.169c0-26.062-5.036-51.354-14.966-75.169
				c-9.587-22.998-23.316-43.646-40.794-61.376c-10.734-10.888-22.557-20.333-35.331-28.258l0.187-0.329h187.887l93.938,165.042
				l-93.938,165.039H907.58l-0.109-0.193c12.743-7.917,24.541-17.344,35.254-28.209
				C960.202,292.286,973.932,271.637,983.519,248.639z"/>
			<path opacity="0" fill="#FFFFFF" d="M969.868,173.47c0-58.896-30.76-110.637-76.829-139.583l14.354-25.221
				c12.774,7.925,24.597,17.371,35.331,28.258c17.478,17.73,31.207,38.378,40.794,61.376c9.93,23.816,14.966,49.107,14.966,75.169
				c0,26.063-5.036,51.354-14.966,75.169c-9.587,22.998-23.316,43.646-40.794,61.376c-10.713,10.866-22.511,20.293-35.254,28.209
				l-14.354-25.221C939.142,284.047,969.868,232.333,969.868,173.47z"/>
		</g>
		<g>
			<g>
				<path fill="#FFFFFF" d="M904.453-40.718c-6.849,11.981-13.705,23.963-20.555,35.944c-14.817,25.906-29.633,51.813-44.452,77.72
					c-14.172,24.776-28.342,49.555-42.512,74.331c-4.154,7.263-8.304,14.522-12.456,21.783c-0.873,1.526-1.746,3.051-2.619,4.576
					c-0.575,1.005,0.124-0.412-0.227-1.029c0.176,0.308,0.351,0.617,0.526,0.925c8.598,15.031,17.19,30.059,25.788,45.089
					c15.271,26.699,30.537,53.395,45.808,80.093c13.33,23.307,26.661,46.619,39.994,69.929c3.566,6.238,7.134,12.478,10.704,18.719
					c2.479,4.325-11.453,5.924-13.796,1.827c-6.853-11.982-13.702-23.962-20.557-35.943c-14.814-25.906-29.633-51.815-44.451-77.721
					c-14.172-24.777-28.342-49.556-42.514-74.333c-4.152-7.26-8.308-14.522-12.452-21.781c-1.33-2.32-3.988-5.216-2.455-7.894
					c8.374-14.644,16.748-29.286,25.123-43.927c15.221-26.611,30.44-53.223,45.659-79.833c13.455-23.525,26.907-47.05,40.366-70.576
					c3.758-6.575,7.521-13.15,11.28-19.725C893-46.642,906.932-45.046,904.453-40.718L904.453-40.718z"/>
			</g>
			<polyline opacity="0.7" fill="none" stroke="#AB9860" stroke-width="0.6621" stroke-miterlimit="10" points="897.559,-41.631 
				774.715,173.148 774.715,173.492 897.559,388.273 			"/>
			<g opacity="0.4">
				<path fill="#FFFFFF" d="M904.453-40.672c-6.849,11.981-13.705,23.963-20.555,35.944c-14.817,25.906-29.633,51.813-44.452,77.72
					c-14.172,24.776-28.342,49.555-42.512,74.332c-4.154,7.261-8.304,14.522-12.456,21.782c-0.873,1.525-1.746,3.051-2.619,4.574
					c-0.592,1.036,0.126-0.499-0.227-1.122c0.176,0.31,0.351,0.617,0.526,0.927c8.598,15.029,17.19,30.06,25.788,45.089
					c15.271,26.697,30.537,53.395,45.808,80.09c13.33,23.31,26.661,46.619,39.994,69.93c3.566,6.24,7.134,12.478,10.704,18.719
					c2.6,4.541-11.365,6.167-13.796,1.92c-6.853-11.981-13.702-23.963-20.557-35.943c-14.814-25.908-29.633-51.814-44.451-77.722
					c-14.172-24.778-28.342-49.555-42.514-74.331c-4.152-7.262-8.308-14.522-12.452-21.784c-1.348-2.347-4.013-5.261-2.455-7.984
					c8.374-14.642,16.748-29.287,25.123-43.927c15.221-26.613,30.44-53.223,45.659-79.833
					c13.455-23.526,26.907-47.051,40.366-70.577c3.758-6.575,7.521-13.149,11.28-19.724
					C893.088-46.84,907.053-45.214,904.453-40.672L904.453-40.672z"/>
			</g>
		</g>
	</g>
</g>
<g id="URNS">
</g>
<g id="Warstwa_30_kopia" display="none">
	<polygon display="inline" fill="#A5966C" points="-63.957,244.042 -74.542,244.042 -74.542,309.303 -103.804,326.209 
		-133.087,309.291 -133.087,244.031 -143.672,244.031 -143.672,315.378 -143.67,315.378 -143.672,315.381 -103.819,338.406 
		-103.818,338.405 -103.811,338.418 -63.957,315.393 -63.958,315.39 -63.957,315.39 	"/>
</g>
<g id="LUXI" display="none">
	<g display="inline">
		<text transform="matrix(1 0 0 1 -681.3735 176.6812)" fill="#A5966C" font-family="'Questrial-Regular'" font-size="505.25">LUXI</text>
		<g opacity="0.4">
			<linearGradient id="SVGID_4_" gradientUnits="userSpaceOnUse" x1="-640.4482" y1="11.4644" x2="334.6738" y2="11.4644">
				<stop  offset="0" style="stop-color:#CE9728"/>
				<stop  offset="0.15" style="stop-color:#A75B11"/>
				<stop  offset="0.3" style="stop-color:#E7B846"/>
				<stop  offset="0.4" style="stop-color:#FFEC7A"/>
				<stop  offset="0.55" style="stop-color:#E7B846"/>
				<stop  offset="0.7" style="stop-color:#CE9728"/>
				<stop  offset="0.85" style="stop-color:#FFE196"/>
				<stop  offset="1" style="stop-color:#F2B93A"/>
			</linearGradient>
			<path fill="url(#SVGID_4_)" d="M-602.555-157.794v298.098h182.396v36.378h-220.289v-334.476H-602.555z"/>
			<linearGradient id="SVGID_5_" gradientUnits="userSpaceOnUse" x1="-640.4482" y1="11.4644" x2="334.6738" y2="11.4644">
				<stop  offset="0" style="stop-color:#CE9728"/>
				<stop  offset="0.15" style="stop-color:#A75B11"/>
				<stop  offset="0.3" style="stop-color:#E7B846"/>
				<stop  offset="0.4" style="stop-color:#FFEC7A"/>
				<stop  offset="0.55" style="stop-color:#E7B846"/>
				<stop  offset="0.7" style="stop-color:#CE9728"/>
				<stop  offset="0.85" style="stop-color:#FFE196"/>
				<stop  offset="1" style="stop-color:#F2B93A"/>
			</linearGradient>
			<path fill="url(#SVGID_5_)" d="M-90.742-157.794V32.685c0,44.462-13.223,80.256-39.662,107.365
				c-26.447,27.118-60.717,40.673-102.818,40.673c-41.77,0-75.874-13.555-102.313-40.673
				c-26.447-27.109-39.662-62.903-39.662-107.365v-190.479h37.894v191.49c0,36.046,10.776,64.167,32.336,84.377
				c18.521,17.178,42.441,25.768,71.746,25.768c29.305,0,53.383-8.589,72.251-25.768c21.552-19.871,32.336-47.999,32.336-84.377
				v-191.49H-90.742z"/>
			<linearGradient id="SVGID_6_" gradientUnits="userSpaceOnUse" x1="-640.4482" y1="11.4644" x2="334.6738" y2="11.4644">
				<stop  offset="0" style="stop-color:#CE9728"/>
				<stop  offset="0.15" style="stop-color:#A75B11"/>
				<stop  offset="0.3" style="stop-color:#E7B846"/>
				<stop  offset="0.4" style="stop-color:#FFEC7A"/>
				<stop  offset="0.55" style="stop-color:#E7B846"/>
				<stop  offset="0.7" style="stop-color:#CE9728"/>
				<stop  offset="0.85" style="stop-color:#FFE196"/>
				<stop  offset="1" style="stop-color:#F2B93A"/>
			</linearGradient>
			<path fill="url(#SVGID_6_)" d="M123.99,3.886l133.385,172.795h-47.998L100.748,33.19L-7.375,176.681h-47.999L78.012,3.886
				L-46.28-157.794H1.719l99.029,131.365l99.535-131.365h47.998L123.99,3.886z"/>
			<linearGradient id="SVGID_7_" gradientUnits="userSpaceOnUse" x1="-640.4482" y1="11.4644" x2="334.6738" y2="11.4644">
				<stop  offset="0" style="stop-color:#CE9728"/>
				<stop  offset="0.15" style="stop-color:#A75B11"/>
				<stop  offset="0.3" style="stop-color:#E7B846"/>
				<stop  offset="0.4" style="stop-color:#FFEC7A"/>
				<stop  offset="0.55" style="stop-color:#E7B846"/>
				<stop  offset="0.7" style="stop-color:#CE9728"/>
				<stop  offset="0.85" style="stop-color:#FFE196"/>
				<stop  offset="1" style="stop-color:#F2B93A"/>
			</linearGradient>
			<path fill="url(#SVGID_7_)" d="M334.674,176.681h-37.895v-334.476h37.895V176.681z"/>
		</g>
	</g>
</g>
<g id="LUXI_kopia_3" display="none">
	<g display="inline">
		<g>
			<path fill="#A5966C" d="M-602.555-157.794v298.098h182.396v36.378h-220.289v-334.476H-602.555z"/>
			<path fill="#A5966C" d="M-107.918-157.794V32.685c0,44.462-13.223,80.256-39.662,107.365
				c-26.447,27.118-60.717,40.673-102.818,40.673c-41.77,0-75.874-13.555-102.313-40.673
				c-26.447-27.109-39.662-62.903-39.662-107.365v-190.479h37.894v191.49c0,36.046,10.776,64.167,32.336,84.377
				c18.521,17.178,42.441,25.768,71.746,25.768c29.305,0,53.383-8.589,72.251-25.768c21.552-19.871,32.336-47.999,32.336-84.377
				v-191.49H-107.918z"/>
			<path fill="#A5966C" d="M106.813,3.886l133.387,172.795h-48L83.571,33.19L-24.552,176.681h-47.999L60.835,3.886l-124.292-161.68
				h48L83.571-26.429l99.534-131.365h47.998L106.813,3.886z"/>
			<path fill="#A5966C" d="M317.498,176.681h-37.895v-334.476h37.895V176.681z"/>
		</g>
	</g>
</g>
<g id="LUXI_kopia_2" display="none">
</g>
<g id="LUXI_v" display="none">
	<g display="inline">
		<g>
			<path fill="#A5966C" d="M-602.555-157.794v298.098h182.396v36.378h-220.289v-334.476H-602.555z"/>
			<path fill="#A5966C" d="M106.813,3.886l133.387,172.795h-48L83.571,33.19L-24.552,176.681h-47.999L60.835,3.886l-124.292-161.68
				h48L83.571-26.429l99.534-131.365h47.998L106.813,3.886z"/>
			<path fill="#A5966C" d="M317.498,176.681h-37.895v-334.476h37.895V176.681z"/>
		</g>
	</g>
	<path display="inline" fill="#A5966C" d="M-107.032-157.966h-0.022v-0.125h-0.333h-37.604h-0.334c0,0-0.02,174.782-0.033,234.975
		c-5.823,3.211-11.649,6.417-17.43,9.705c-9.423,5.359-18.7,10.977-28.064,16.44c-14.382,8.392-28.77,16.773-43.185,25.105
		c-4.373,2.527-8.899,4.792-13.248,7.355c-1.7,1.001-2.985,1.052-4.697,0.023c-7.912-4.754-15.864-9.447-23.876-14.031
		c-8.96-5.126-18.048-10.033-26.999-15.18c-10.513-6.045-20.931-12.258-31.404-18.376c-6.705-3.917-19.805-11.18-19.805-11.18
		l0.187-234.712h-0.334h-37.604h-0.333c0,0,0.242,248.275,0.233,253.91c-0.004,2.542,0.888,3.854,3.021,5.034
		c4.595,2.54,9.177,5.101,13.751,7.676c0.155,0.088,0.313,0.174,0.469,0.262c5.399,3.04,10.787,6.1,16.158,9.188
		c11.684,6.719,23.303,13.55,34.939,20.348c9.126,5.331,18.205,10.745,27.366,16.013c7.798,4.484,15.718,8.76,23.526,13.228
		c6.982,3.994,13.913,8.083,20.806,12.226c0.582,0.35,1.106,0.552,1.618,0.622c0.229,0.001,0.456,0.007,0.685,0.007
		c0.569-0.057,1.145-0.27,1.789-0.649c3.791-2.233,7.734-4.207,11.545-6.409c12.562-7.261,25.1-14.564,37.632-21.877
		c8.16-4.76,16.244-9.655,24.454-14.326c9.607-5.465,19.368-10.662,28.964-16.145c6.998-3.999,13.823-8.299,20.775-12.381
		c0.16-0.094,0.318-0.191,0.478-0.285c0.071-0.041,0.139-0.083,0.209-0.124c4.769-2.787,9.631-5.42,14.501-8.032
		c1.583-0.849,2.243-1.885,2.241-3.757C-107.004,83.715-107.032-157.966-107.032-157.966z"/>
	<polygon display="inline" opacity="0.8" fill="#2D7BFF" points="-354.322,75.236 -354.322,-157.987 -392.072,-157.987 
		-392.072,96.991 -392.065,96.991 -392.072,97.001 -249.94,179.287 -231.028,146.617 	"/>
	<polygon display="inline" fill="#2D7BFF" points="-107.778,-157.945 -145.528,-157.945 -145.528,75.278 -249.889,135.697 
		-354.322,75.236 -354.322,-157.987 -392.072,-157.987 -392.072,96.991 -392.065,96.991 -392.072,97.001 -249.94,179.287 
		-249.937,179.281 -249.91,179.329 -107.778,97.043 -107.785,97.032 -107.778,97.032 	"/>
</g>
<g id="Warstwa_30" display="none">
	<polygon display="inline" fill="#2D7BFF" points="-107.778,-157.945 -145.528,-157.945 -145.528,75.278 -249.889,135.697 
		-354.322,75.236 -354.322,-157.987 -392.072,-157.987 -392.072,96.991 -392.065,96.991 -392.072,97.001 -249.94,179.287 
		-249.937,179.281 -249.91,179.329 -107.778,97.043 -107.785,97.032 -107.778,97.032 	"/>
</g>
<g id="LUXI_v_kopia_2">
	<g>
		<g>
			<g>
				<path fill="#561D5E" d="M380.486,65.559c0,17.659,9.218,33.173,23.025,41.86l23.842-41.887l-23.818-41.848
					C389.714,32.368,380.486,47.889,380.486,65.559z"/>
				<path fill="#561D5E" d="M376.391,88.109c-2.979-7.145-4.489-14.732-4.489-22.551c0-7.818,1.51-15.406,4.489-22.551
					c2.877-6.899,6.995-13.094,12.238-18.413c3.221-3.266,6.768-6.1,10.6-8.478l-0.056-0.098h-56.366l-28.182,49.513l28.182,49.511
					h56.366l0.033-0.058c-3.823-2.375-7.363-5.203-10.577-8.463C383.386,101.204,379.268,95.009,376.391,88.109z"/>
				<path opacity="0" fill="none" d="M380.486,65.559c0-17.669,9.228-33.191,23.049-41.875l-4.307-7.567
					c-3.832,2.378-7.379,5.211-10.6,8.478c-5.243,5.319-9.361,11.514-12.238,18.413c-2.979,7.145-4.489,14.732-4.489,22.551
					c0,7.819,1.51,15.406,4.489,22.551c2.877,6.899,6.995,13.094,12.238,18.413c3.214,3.26,6.754,6.088,10.577,8.463l4.306-7.566
					C389.704,98.732,380.486,83.217,380.486,65.559z"/>
			</g>
			<g>
				<g>
					<path fill="#AB9860" d="M400.11,1.302c2.055,3.595,4.111,7.189,6.167,10.783c4.444,7.772,8.89,15.544,13.335,23.316
						c4.252,7.433,8.502,14.866,12.754,22.299c1.246,2.178,2.491,4.356,3.736,6.535c0.263,0.458,0.524,0.915,0.786,1.373
						c0.172,0.302-0.037-0.124,0.068-0.309c-0.053,0.092-0.105,0.185-0.158,0.278c-2.58,4.509-5.157,9.018-7.736,13.526
						c-4.581,8.01-9.162,16.018-13.742,24.028c-3.999,6.992-7.999,13.985-11.998,20.979c-1.07,1.872-2.141,3.744-3.212,5.615
						c-0.743,1.298,3.437,1.778,4.139,0.548c2.056-3.595,4.111-7.189,6.167-10.783c4.444-7.772,8.89-15.544,13.335-23.316
						c4.252-7.433,8.503-14.866,12.755-22.3c1.246-2.178,2.492-4.356,3.736-6.534c0.398-0.696,1.195-1.565,0.735-2.369
						c-2.512-4.393-5.024-8.786-7.536-13.178c-4.566-7.983-9.133-15.967-13.698-23.95c-4.036-7.058-8.072-14.115-12.11-21.173
						c-1.126-1.972-2.256-3.945-3.384-5.917C403.547-0.475,399.367,0.004,400.11,1.302L400.11,1.302z"/>
				</g>
				<polyline opacity="0.7" fill="none" stroke="#AB9860" stroke-width="0.6621" stroke-miterlimit="10" points="402.179,1.028 
					439.032,65.462 439.032,65.565 402.179,130 				"/>
				<g opacity="0.4">
					<linearGradient id="SVGID_8_" gradientUnits="userSpaceOnUse" x1="420.5664" y1="130.0356" x2="420.5664" y2="0.9913">
						<stop  offset="0" style="stop-color:#CE9728"/>
						<stop  offset="0.15" style="stop-color:#A75B11"/>
						<stop  offset="0.3" style="stop-color:#E7B846"/>
						<stop  offset="0.4" style="stop-color:#FFEC7A"/>
						<stop  offset="0.55" style="stop-color:#E7B846"/>
						<stop  offset="0.7" style="stop-color:#CE9728"/>
						<stop  offset="0.85" style="stop-color:#FFE196"/>
						<stop  offset="1" style="stop-color:#F2B93A"/>
					</linearGradient>
					<path fill="url(#SVGID_8_)" d="M400.11,1.316c2.055,3.594,4.111,7.189,6.167,10.783c4.444,7.772,8.89,15.544,13.335,23.315
						c4.252,7.434,8.502,14.867,12.754,22.3c1.246,2.179,2.491,4.356,3.736,6.535c0.263,0.458,0.524,0.915,0.786,1.372
						c0.178,0.311-0.038-0.149,0.068-0.336c-0.053,0.093-0.105,0.185-0.158,0.278c-2.58,4.509-5.157,9.019-7.736,13.527
						c-4.581,8.009-9.162,16.019-13.742,24.027c-3.999,6.993-7.999,13.985-11.998,20.979c-1.07,1.872-2.141,3.744-3.212,5.616
						c-0.779,1.362,3.41,1.85,4.139,0.576c2.056-3.594,4.111-7.189,6.167-10.783c4.444-7.772,8.89-15.544,13.335-23.316
						c4.252-7.433,8.503-14.866,12.755-22.299c1.246-2.179,2.492-4.357,3.736-6.535c0.403-0.704,1.203-1.579,0.735-2.395
						c-2.512-4.393-5.024-8.787-7.536-13.178c-4.566-7.984-9.133-15.967-13.698-23.95c-4.036-7.058-8.072-14.115-12.11-21.173
						c-1.126-1.973-2.256-3.945-3.384-5.917C403.521-0.535,399.331-0.046,400.11,1.316L400.11,1.316z"/>
				</g>
			</g>
		</g>
		<g>
			<g>
				<path fill="#FFFFFF" d="M483.096,115.315c0,17.659-9.219,33.173-23.026,41.86l-23.842-41.887l23.819-41.848
					C473.867,82.125,483.096,97.646,483.096,115.315z"/>
				<path fill="#FFFFFF" d="M487.19,137.866c2.979-7.145,4.489-14.732,4.489-22.551c0-7.818-1.511-15.406-4.489-22.551
					c-2.876-6.899-6.995-13.094-12.238-18.413c-3.221-3.266-6.767-6.1-10.6-8.477l0.057-0.099h56.365l28.182,49.513L520.774,164.8
					h-56.365l-0.033-0.058c3.823-2.375,7.362-5.203,10.576-8.463C480.195,150.96,484.314,144.766,487.19,137.866z"/>
				<path opacity="0" fill="#FFFFFF" d="M483.096,115.315c0-17.669-9.229-33.191-23.049-41.875l4.306-7.566
					c3.833,2.377,7.379,5.211,10.6,8.477c5.243,5.319,9.362,11.514,12.238,18.413c2.979,7.145,4.489,14.732,4.489,22.551
					c0,7.819-1.511,15.406-4.489,22.551c-2.876,6.899-6.995,13.094-12.238,18.413c-3.214,3.26-6.753,6.088-10.576,8.463
					l-4.307-7.566C473.877,148.489,483.096,132.975,483.096,115.315z"/>
			</g>
			<g>
				<g>
					<path fill="#FFFFFF" d="M463.471,51.059c-2.055,3.594-4.111,7.189-6.166,10.783c-4.445,7.772-8.891,15.544-13.336,23.316
						c-4.252,7.433-8.503,14.866-12.754,22.299c-1.246,2.179-2.491,4.357-3.736,6.535c-0.262,0.458-0.524,0.915-0.786,1.373
						c-0.172,0.302,0.037-0.124-0.067-0.309c0.053,0.092,0.104,0.185,0.157,0.277c2.58,4.509,5.157,9.018,7.736,13.527
						c4.582,8.01,9.161,16.019,13.743,24.028c3.999,6.992,7.998,13.986,11.998,20.979c1.069,1.872,2.14,3.744,3.211,5.616
						c0.743,1.298-3.436,1.777-4.139,0.548c-2.056-3.595-4.11-7.189-6.167-10.783c-4.444-7.771-8.89-15.544-13.335-23.316
						c-4.252-7.433-8.503-14.867-12.755-22.3c-1.245-2.178-2.492-4.356-3.735-6.534c-0.399-0.696-1.196-1.565-0.736-2.368
						c2.512-4.393,5.024-8.786,7.537-13.178c4.565-7.983,9.132-15.967,13.697-23.95c4.037-7.058,8.072-14.115,12.11-21.173
						c1.127-1.972,2.256-3.945,3.384-5.917C460.035,49.282,464.214,49.761,463.471,51.059L463.471,51.059z"/>
				</g>
				<polyline opacity="0.7" fill="none" stroke="#AB9860" stroke-width="0.6621" stroke-miterlimit="10" points="461.402,50.785 
					424.549,115.219 424.549,115.322 461.402,179.756 				"/>
				<g opacity="0.4">
					<path fill="#FFFFFF" d="M463.471,51.073c-2.055,3.595-4.111,7.189-6.166,10.783c-4.445,7.772-8.891,15.544-13.336,23.316
						c-4.252,7.433-8.503,14.866-12.754,22.299c-1.246,2.178-2.491,4.356-3.736,6.535c-0.262,0.458-0.524,0.916-0.786,1.372
						c-0.178,0.311,0.038-0.149-0.067-0.336c0.053,0.093,0.104,0.185,0.157,0.278c2.58,4.509,5.157,9.018,7.736,13.526
						c4.582,8.009,9.161,16.019,13.743,24.027c3.999,6.993,7.998,13.986,11.998,20.979c1.069,1.872,2.14,3.743,3.211,5.616
						c0.78,1.362-3.409,1.85-4.139,0.576c-2.056-3.594-4.11-7.189-6.167-10.783c-4.444-7.772-8.89-15.544-13.335-23.316
						c-4.252-7.434-8.503-14.867-12.755-22.299c-1.245-2.179-2.492-4.356-3.735-6.535c-0.404-0.704-1.204-1.579-0.736-2.396
						c2.512-4.393,5.024-8.786,7.537-13.178c4.565-7.984,9.132-15.967,13.697-23.95c4.037-7.058,8.072-14.115,12.11-21.173
						c1.127-1.973,2.256-3.945,3.384-5.917C460.062,49.223,464.251,49.71,463.471,51.073L463.471,51.073z"/>
				</g>
			</g>
		</g>
		<g opacity="0.4">
			<g>
				<path fill="#561D5E" d="M483.096,115.315c0,17.659-9.219,33.173-23.026,41.86l-23.842-41.887l23.819-41.848
					C473.867,82.125,483.096,97.646,483.096,115.315z"/>
				<path fill="#561D5E" d="M487.19,137.866c2.979-7.145,4.489-14.732,4.489-22.551c0-7.818-1.511-15.406-4.489-22.551
					c-2.876-6.899-6.995-13.094-12.238-18.413c-3.221-3.266-6.767-6.1-10.6-8.477l0.057-0.099h56.365l28.182,49.513L520.774,164.8
					h-56.365l-0.033-0.058c3.823-2.375,7.362-5.203,10.576-8.463C480.195,150.96,484.314,144.766,487.19,137.866z"/>
				<path opacity="0" fill="none" d="M483.096,115.315c0-17.669-9.229-33.191-23.049-41.875l4.306-7.566
					c3.833,2.377,7.379,5.211,10.6,8.477c5.243,5.319,9.362,11.514,12.238,18.413c2.979,7.145,4.489,14.732,4.489,22.551
					c0,7.819-1.511,15.406-4.489,22.551c-2.876,6.899-6.995,13.094-12.238,18.413c-3.214,3.26-6.753,6.088-10.576,8.463
					l-4.307-7.566C473.877,148.489,483.096,132.975,483.096,115.315z"/>
			</g>
			<g>
				<g>
					<path fill="#AB9860" d="M463.471,51.059c-2.055,3.594-4.111,7.189-6.166,10.783c-4.445,7.772-8.891,15.544-13.336,23.316
						c-4.252,7.433-8.503,14.866-12.754,22.299c-1.246,2.179-2.491,4.357-3.736,6.535c-0.262,0.458-0.524,0.915-0.786,1.373
						c-0.172,0.302,0.037-0.124-0.067-0.309c0.053,0.092,0.104,0.185,0.157,0.277c2.58,4.509,5.157,9.018,7.736,13.527
						c4.582,8.01,9.161,16.019,13.743,24.028c3.999,6.992,7.998,13.986,11.998,20.979c1.069,1.872,2.14,3.744,3.211,5.616
						c0.743,1.298-3.436,1.777-4.139,0.548c-2.056-3.595-4.11-7.189-6.167-10.783c-4.444-7.771-8.89-15.544-13.335-23.316
						c-4.252-7.433-8.503-14.867-12.755-22.3c-1.245-2.178-2.492-4.356-3.735-6.534c-0.399-0.696-1.196-1.565-0.736-2.368
						c2.512-4.393,5.024-8.786,7.537-13.178c4.565-7.983,9.132-15.967,13.697-23.95c4.037-7.058,8.072-14.115,12.11-21.173
						c1.127-1.972,2.256-3.945,3.384-5.917C460.035,49.282,464.214,49.761,463.471,51.059L463.471,51.059z"/>
				</g>
				<polyline opacity="0.7" fill="none" stroke="#AB9860" stroke-width="0.6621" stroke-miterlimit="10" points="461.402,50.785 
					424.549,115.219 424.549,115.322 461.402,179.756 				"/>
				<g opacity="0.4">
					
						<linearGradient id="SVGID_9_" gradientUnits="userSpaceOnUse" x1="775.8184" y1="179.793" x2="775.8184" y2="50.7486" gradientTransform="matrix(-1 0 0 1 1218.832 0)">
						<stop  offset="0" style="stop-color:#CE9728"/>
						<stop  offset="0.15" style="stop-color:#A75B11"/>
						<stop  offset="0.3" style="stop-color:#E7B846"/>
						<stop  offset="0.4" style="stop-color:#FFEC7A"/>
						<stop  offset="0.55" style="stop-color:#E7B846"/>
						<stop  offset="0.7" style="stop-color:#CE9728"/>
						<stop  offset="0.85" style="stop-color:#FFE196"/>
						<stop  offset="1" style="stop-color:#F2B93A"/>
					</linearGradient>
					<path fill="url(#SVGID_9_)" d="M463.471,51.073c-2.055,3.595-4.111,7.189-6.166,10.783
						c-4.445,7.772-8.891,15.544-13.336,23.316c-4.252,7.433-8.503,14.866-12.754,22.299c-1.246,2.178-2.491,4.356-3.736,6.535
						c-0.262,0.458-0.524,0.916-0.786,1.372c-0.178,0.311,0.038-0.149-0.067-0.336c0.053,0.093,0.104,0.185,0.157,0.278
						c2.58,4.509,5.157,9.018,7.736,13.526c4.582,8.009,9.161,16.019,13.743,24.027c3.999,6.993,7.998,13.986,11.998,20.979
						c1.069,1.872,2.14,3.743,3.211,5.616c0.78,1.362-3.409,1.85-4.139,0.576c-2.056-3.594-4.11-7.189-6.167-10.783
						c-4.444-7.772-8.89-15.544-13.335-23.316c-4.252-7.434-8.503-14.867-12.755-22.299c-1.245-2.179-2.492-4.356-3.735-6.535
						c-0.404-0.704-1.204-1.579-0.736-2.396c2.512-4.393,5.024-8.786,7.537-13.178c4.565-7.984,9.132-15.967,13.697-23.95
						c4.037-7.058,8.072-14.115,12.11-21.173c1.127-1.973,2.256-3.945,3.384-5.917C460.062,49.223,464.251,49.71,463.471,51.073
						L463.471,51.073z"/>
				</g>
			</g>
		</g>
		<g>
			<g>
				<g>
					<path fill="#A5966C" d="M191.684,164.55H188.5v-28.102h13.457c2.857,0,5.15,0.793,6.877,2.377
						c1.726,1.557,2.589,3.693,2.589,6.41c0,3.509-1.458,5.9-4.372,7.174c-0.821,0.368-1.628,0.637-2.42,0.807l7.387,11.334h-3.778
						l-6.792-10.782h-9.764V164.55z M191.684,150.753h9.722c2.999,0,5.065-0.934,6.197-2.802c0.425-0.707,0.637-1.613,0.637-2.716
						c0-1.783-0.608-3.19-1.825-4.224c-1.217-1.033-2.83-1.549-4.839-1.549h-9.892V150.753z"/>
					<path fill="#A5966C" d="M250.18,136.448v28.102h-3.693l-17.362-23.729v23.729h-3.184v-28.102h3.693l17.362,23.645v-23.645
						H250.18z"/>
					<path fill="#A5966C" d="M269.324,140.757c-0.538,0.467-0.898,0.983-1.083,1.549c-0.185,0.566-0.275,1.167-0.275,1.804
						c0,0.637,0.275,1.224,0.827,1.762c0.553,0.538,1.28,0.991,2.187,1.358c0.905,0.368,1.938,0.693,3.099,0.976
						c1.16,0.283,2.342,0.573,3.545,0.87c1.202,0.297,2.384,0.637,3.545,1.019c1.159,0.382,2.192,0.87,3.099,1.464
						c2.009,1.273,3.014,3.014,3.014,5.221c0,2.632-0.983,4.642-2.95,6.028c-1.968,1.387-4.69,2.08-8.172,2.08
						c-3.934,0-6.934-0.82-8.999-2.462c-1.84-1.471-2.887-3.566-3.142-6.283h3.312c0.112,1.925,1.047,3.396,2.802,4.415
						c1.528,0.877,3.551,1.316,6.07,1.316c5.264,0,7.896-1.656,7.896-4.967c0-1.131-0.475-2.023-1.422-2.674
						c-0.948-0.65-2.138-1.188-3.566-1.613c-1.429-0.424-2.972-0.82-4.627-1.188c-1.655-0.367-3.198-0.842-4.627-1.422
						c-1.429-0.58-2.618-1.344-3.565-2.292c-0.948-0.948-1.422-2.229-1.422-3.842c0-2.292,0.877-4.16,2.632-5.603
						c1.754-1.443,4.4-2.165,7.938-2.165c3.566,0,6.325,0.821,8.278,2.462c1.782,1.443,2.73,3.297,2.844,5.561h-3.269
						c-0.283-2.32-1.783-3.863-4.5-4.627c-0.962-0.283-2.158-0.424-3.587-0.424s-2.632,0.163-3.607,0.488
						C270.619,139.894,269.861,140.29,269.324,140.757z"/>
				</g>
				<polygon fill="#A5966C" points="172.947,136.487 169.772,136.487 169.772,156.065 160.993,161.137 152.209,156.062 
					152.209,136.484 149.033,136.484 149.033,157.888 149.033,157.888 149.033,157.889 160.989,164.796 160.989,164.796 
					160.991,164.8 172.947,157.892 172.947,157.892 172.947,157.892 				"/>
			</g>
			<g opacity="0.4">
				<g>
					<linearGradient id="SVGID_10_" gradientUnits="userSpaceOnUse" x1="149.0332" y1="150.499" x2="287.2803" y2="150.499">
						<stop  offset="0" style="stop-color:#CE9728"/>
						<stop  offset="0.15" style="stop-color:#A75B11"/>
						<stop  offset="0.3" style="stop-color:#E7B846"/>
						<stop  offset="0.4" style="stop-color:#FFEC7A"/>
						<stop  offset="0.55" style="stop-color:#E7B846"/>
						<stop  offset="0.7" style="stop-color:#CE9728"/>
						<stop  offset="0.85" style="stop-color:#FFE196"/>
						<stop  offset="1" style="stop-color:#F2B93A"/>
					</linearGradient>
					<path fill="url(#SVGID_10_)" d="M191.684,164.55H188.5v-28.102h13.457c2.857,0,5.15,0.793,6.877,2.377
						c1.726,1.557,2.589,3.693,2.589,6.41c0,3.509-1.458,5.9-4.372,7.174c-0.821,0.368-1.628,0.637-2.42,0.807l7.387,11.334h-3.778
						l-6.792-10.782h-9.764V164.55z M191.684,150.753h9.722c2.999,0,5.065-0.934,6.197-2.802c0.425-0.707,0.637-1.613,0.637-2.716
						c0-1.783-0.608-3.19-1.825-4.224c-1.217-1.033-2.83-1.549-4.839-1.549h-9.892V150.753z"/>
					<linearGradient id="SVGID_11_" gradientUnits="userSpaceOnUse" x1="149.0332" y1="150.499" x2="287.2803" y2="150.499">
						<stop  offset="0" style="stop-color:#CE9728"/>
						<stop  offset="0.15" style="stop-color:#A75B11"/>
						<stop  offset="0.3" style="stop-color:#E7B846"/>
						<stop  offset="0.4" style="stop-color:#FFEC7A"/>
						<stop  offset="0.55" style="stop-color:#E7B846"/>
						<stop  offset="0.7" style="stop-color:#CE9728"/>
						<stop  offset="0.85" style="stop-color:#FFE196"/>
						<stop  offset="1" style="stop-color:#F2B93A"/>
					</linearGradient>
					<path fill="url(#SVGID_11_)" d="M250.18,136.448v28.102h-3.693l-17.362-23.729v23.729h-3.184v-28.102h3.693l17.362,23.645
						v-23.645H250.18z"/>
					<linearGradient id="SVGID_12_" gradientUnits="userSpaceOnUse" x1="149.0332" y1="150.499" x2="287.2803" y2="150.499">
						<stop  offset="0" style="stop-color:#CE9728"/>
						<stop  offset="0.15" style="stop-color:#A75B11"/>
						<stop  offset="0.3" style="stop-color:#E7B846"/>
						<stop  offset="0.4" style="stop-color:#FFEC7A"/>
						<stop  offset="0.55" style="stop-color:#E7B846"/>
						<stop  offset="0.7" style="stop-color:#CE9728"/>
						<stop  offset="0.85" style="stop-color:#FFE196"/>
						<stop  offset="1" style="stop-color:#F2B93A"/>
					</linearGradient>
					<path fill="url(#SVGID_12_)" d="M269.324,140.757c-0.538,0.467-0.898,0.983-1.083,1.549c-0.185,0.566-0.275,1.167-0.275,1.804
						c0,0.637,0.275,1.224,0.827,1.762c0.553,0.538,1.28,0.991,2.187,1.358c0.905,0.368,1.938,0.693,3.099,0.976
						c1.16,0.283,2.342,0.573,3.545,0.87c1.202,0.297,2.384,0.637,3.545,1.019c1.159,0.382,2.192,0.87,3.099,1.464
						c2.009,1.273,3.014,3.014,3.014,5.221c0,2.632-0.983,4.642-2.95,6.028c-1.968,1.387-4.69,2.08-8.172,2.08
						c-3.934,0-6.934-0.82-8.999-2.462c-1.84-1.471-2.887-3.566-3.142-6.283h3.312c0.112,1.925,1.047,3.396,2.802,4.415
						c1.528,0.877,3.551,1.316,6.07,1.316c5.264,0,7.896-1.656,7.896-4.967c0-1.131-0.475-2.023-1.422-2.674
						c-0.948-0.65-2.138-1.188-3.566-1.613c-1.429-0.424-2.972-0.82-4.627-1.188c-1.655-0.367-3.198-0.842-4.627-1.422
						c-1.429-0.58-2.618-1.344-3.565-2.292c-0.948-0.948-1.422-2.229-1.422-3.842c0-2.292,0.877-4.16,2.632-5.603
						c1.754-1.443,4.4-2.165,7.938-2.165c3.566,0,6.325,0.821,8.278,2.462c1.782,1.443,2.73,3.297,2.844,5.561h-3.269
						c-0.283-2.32-1.783-3.863-4.5-4.627c-0.962-0.283-2.158-0.424-3.587-0.424s-2.632,0.163-3.607,0.488
						C270.619,139.894,269.861,140.29,269.324,140.757z"/>
				</g>
				<linearGradient id="SVGID_13_" gradientUnits="userSpaceOnUse" x1="149.0332" y1="150.499" x2="287.2803" y2="150.499">
					<stop  offset="0" style="stop-color:#CE9728"/>
					<stop  offset="0.15" style="stop-color:#A75B11"/>
					<stop  offset="0.3" style="stop-color:#E7B846"/>
					<stop  offset="0.4" style="stop-color:#FFEC7A"/>
					<stop  offset="0.55" style="stop-color:#E7B846"/>
					<stop  offset="0.7" style="stop-color:#CE9728"/>
					<stop  offset="0.85" style="stop-color:#FFE196"/>
					<stop  offset="1" style="stop-color:#F2B93A"/>
				</linearGradient>
				<polygon fill="url(#SVGID_13_)" points="172.947,136.487 169.772,136.487 169.772,156.065 160.993,161.137 152.209,156.062 
					152.209,136.484 149.033,136.484 149.033,157.888 149.033,157.888 149.033,157.889 160.989,164.796 160.989,164.796 
					160.991,164.8 172.947,157.892 172.947,157.892 172.947,157.892 				"/>
			</g>
		</g>
		<g>
			<g>
				<g>
					<g>
						<path fill="#A5966C" d="M11.368,15.936v89.429h54.719v10.914H0V15.936H11.368z"/>
						<path fill="#A5966C" d="M224.179,64.44l40.016,51.838h-14.399l-32.589-43.047l-32.437,43.047h-14.4l40.017-51.838
							l-37.288-48.504h14.4l29.708,39.41l29.86-39.41h14.399L224.179,64.44z"/>
						<path fill="#A5966C" d="M287.384,116.279h-11.368V15.936h11.368V116.279z"/>
					</g>
				</g>
				<g>
					<polygon fill="#A5966C" points="159.801,15.891 148.477,15.891 148.477,85.858 117.168,103.984 85.838,85.845 85.838,15.878 
						74.514,15.878 74.514,92.372 74.515,92.372 74.514,92.375 117.152,117.061 117.153,117.059 117.162,117.073 159.801,92.387 
						159.8,92.384 159.801,92.384 					"/>
					<polygon fill="#A5966C" points="159.801,15.891 148.477,15.891 148.477,85.858 117.168,103.984 85.838,85.845 85.838,15.878 
						74.514,15.878 74.514,92.372 74.515,92.372 74.514,92.375 117.152,117.061 117.153,117.059 117.162,117.073 159.801,92.387 
						159.8,92.384 159.801,92.384 					"/>
				</g>
			</g>
			<g opacity="0.4">
				<g>
					<g>
						<linearGradient id="SVGID_14_" gradientUnits="userSpaceOnUse" x1="0" y1="66.4756" x2="287.3838" y2="66.4756">
							<stop  offset="0" style="stop-color:#CE9728"/>
							<stop  offset="0.15" style="stop-color:#A75B11"/>
							<stop  offset="0.3" style="stop-color:#E7B846"/>
							<stop  offset="0.4" style="stop-color:#FFEC7A"/>
							<stop  offset="0.55" style="stop-color:#E7B846"/>
							<stop  offset="0.7" style="stop-color:#CE9728"/>
							<stop  offset="0.85" style="stop-color:#FFE196"/>
							<stop  offset="1" style="stop-color:#F2B93A"/>
						</linearGradient>
						<path fill="url(#SVGID_14_)" d="M11.368,15.936v89.429h54.719v10.914H0V15.936H11.368z"/>
						<linearGradient id="SVGID_15_" gradientUnits="userSpaceOnUse" x1="0" y1="66.4756" x2="287.3838" y2="66.4756">
							<stop  offset="0" style="stop-color:#CE9728"/>
							<stop  offset="0.15" style="stop-color:#A75B11"/>
							<stop  offset="0.3" style="stop-color:#E7B846"/>
							<stop  offset="0.4" style="stop-color:#FFEC7A"/>
							<stop  offset="0.55" style="stop-color:#E7B846"/>
							<stop  offset="0.7" style="stop-color:#CE9728"/>
							<stop  offset="0.85" style="stop-color:#FFE196"/>
							<stop  offset="1" style="stop-color:#F2B93A"/>
						</linearGradient>
						<path fill="url(#SVGID_15_)" d="M224.179,64.44l40.016,51.838h-14.399l-32.589-43.047l-32.437,43.047h-14.4l40.017-51.838
							l-37.288-48.504h14.4l29.708,39.41l29.86-39.41h14.399L224.179,64.44z"/>
						<linearGradient id="SVGID_16_" gradientUnits="userSpaceOnUse" x1="0" y1="66.4756" x2="287.3838" y2="66.4756">
							<stop  offset="0" style="stop-color:#CE9728"/>
							<stop  offset="0.15" style="stop-color:#A75B11"/>
							<stop  offset="0.3" style="stop-color:#E7B846"/>
							<stop  offset="0.4" style="stop-color:#FFEC7A"/>
							<stop  offset="0.55" style="stop-color:#E7B846"/>
							<stop  offset="0.7" style="stop-color:#CE9728"/>
							<stop  offset="0.85" style="stop-color:#FFE196"/>
							<stop  offset="1" style="stop-color:#F2B93A"/>
						</linearGradient>
						<path fill="url(#SVGID_16_)" d="M287.384,116.279h-11.368V15.936h11.368V116.279z"/>
					</g>
				</g>
				<g>
					<linearGradient id="SVGID_17_" gradientUnits="userSpaceOnUse" x1="0" y1="66.4756" x2="287.3838" y2="66.4756">
						<stop  offset="0" style="stop-color:#CE9728"/>
						<stop  offset="0.15" style="stop-color:#A75B11"/>
						<stop  offset="0.3" style="stop-color:#E7B846"/>
						<stop  offset="0.4" style="stop-color:#FFEC7A"/>
						<stop  offset="0.55" style="stop-color:#E7B846"/>
						<stop  offset="0.7" style="stop-color:#CE9728"/>
						<stop  offset="0.85" style="stop-color:#FFE196"/>
						<stop  offset="1" style="stop-color:#F2B93A"/>
					</linearGradient>
					<polygon fill="url(#SVGID_17_)" points="159.801,15.891 148.477,15.891 148.477,85.858 117.168,103.984 85.838,85.845 
						85.838,15.878 74.514,15.878 74.514,92.372 74.515,92.372 74.514,92.375 117.152,117.061 117.153,117.059 117.162,117.073 
						159.801,92.387 159.8,92.384 159.801,92.384 					"/>
					<linearGradient id="SVGID_18_" gradientUnits="userSpaceOnUse" x1="0" y1="66.4756" x2="287.3838" y2="66.4756">
						<stop  offset="0" style="stop-color:#CE9728"/>
						<stop  offset="0.15" style="stop-color:#A75B11"/>
						<stop  offset="0.3" style="stop-color:#E7B846"/>
						<stop  offset="0.4" style="stop-color:#FFEC7A"/>
						<stop  offset="0.55" style="stop-color:#E7B846"/>
						<stop  offset="0.7" style="stop-color:#CE9728"/>
						<stop  offset="0.85" style="stop-color:#FFE196"/>
						<stop  offset="1" style="stop-color:#F2B93A"/>
					</linearGradient>
					<polygon fill="url(#SVGID_18_)" points="159.801,15.891 148.477,15.891 148.477,85.858 117.168,103.984 85.838,85.845 
						85.838,15.878 74.514,15.878 74.514,92.372 74.515,92.372 74.514,92.375 117.152,117.061 117.153,117.059 117.162,117.073 
						159.801,92.387 159.8,92.384 159.801,92.384 					"/>
					<linearGradient id="SVGID_19_" gradientUnits="userSpaceOnUse" x1="0" y1="66.4756" x2="287.3838" y2="66.4756">
						<stop  offset="0" style="stop-color:#CE9728"/>
						<stop  offset="0.15" style="stop-color:#A75B11"/>
						<stop  offset="0.3" style="stop-color:#E7B846"/>
						<stop  offset="0.4" style="stop-color:#FFEC7A"/>
						<stop  offset="0.55" style="stop-color:#E7B846"/>
						<stop  offset="0.7" style="stop-color:#CE9728"/>
						<stop  offset="0.85" style="stop-color:#FFE196"/>
						<stop  offset="1" style="stop-color:#F2B93A"/>
					</linearGradient>
					<polygon fill="url(#SVGID_19_)" points="159.801,15.891 148.477,15.891 148.477,85.858 117.168,103.984 85.838,85.845 
						85.838,15.878 74.514,15.878 74.514,92.372 74.515,92.372 74.514,92.375 117.152,117.061 117.153,117.059 117.162,117.073 
						159.801,92.387 159.8,92.384 159.801,92.384 					"/>
				</g>
			</g>
		</g>
	</g>
</g>
<g id="LUXI_v_kopia" display="none">
	<g display="inline">
		<g>
			<path fill="#A5966C" d="M-602.555-157.794v298.098h182.396v36.378h-220.289v-334.476H-602.555z"/>
			<path fill="#A5966C" d="M106.813,3.886l133.387,172.795h-48L83.571,33.19L-24.552,176.681h-47.999L60.835,3.886l-124.292-161.68
				h48L83.571-26.429l99.534-131.365h47.998L106.813,3.886z"/>
			<path fill="#A5966C" d="M317.498,176.681h-37.895v-334.476h37.895V176.681z"/>
		</g>
	</g>
	<path display="inline" fill="#A5966C" d="M-107.032-157.966h-0.022v-0.125h-0.333h-37.561h-0.334c0,0-0.02,174.782-0.033,234.975
		c-5.816,3.211-11.636,6.417-17.41,9.705c-9.412,5.359-18.678,10.977-28.031,16.44c-14.365,8.392-28.736,16.773-43.135,25.105
		c-4.368,2.527-8.889,4.792-13.232,7.355c-1.697,1.001-2.981,1.052-4.691,0.023c-7.902-4.754-15.846-9.447-23.849-14.031
		c-8.95-5.126-18.027-10.033-26.968-15.18c-10.5-6.045-20.906-12.258-31.367-18.376c-6.697-3.917-19.782-11.18-19.782-11.18
		l0.187-234.712h-0.334h-37.56h-0.333c0,0,0.241,248.275,0.232,253.91c-0.004,2.542,0.887,3.854,3.018,5.034
		c4.59,2.54,9.166,5.101,13.735,7.676c0.155,0.088,0.313,0.174,0.469,0.262c5.393,3.04,10.774,6.1,16.14,9.188
		c11.67,6.719,23.275,13.55,34.898,20.348c9.115,5.331,18.184,10.745,27.334,16.013c7.789,4.484,15.699,8.76,23.498,13.228
		c6.975,3.994,13.896,8.083,20.782,12.226c0.581,0.35,1.104,0.552,1.616,0.622c0.229,0.001,0.455,0.007,0.684,0.007
		c0.568-0.057,1.144-0.27,1.787-0.649c3.786-2.233,7.725-4.207,11.531-6.409c12.547-7.261,25.07-14.564,37.588-21.877
		c8.15-4.76,16.225-9.655,24.426-14.326c9.596-5.465,19.345-10.662,28.93-16.145c6.99-3.999,13.807-8.299,20.751-12.381
		c0.159-0.094,0.317-0.191,0.478-0.285c0.07-0.041,0.139-0.083,0.209-0.124c4.764-2.787,9.62-5.42,14.484-8.032
		c1.581-0.849,2.24-1.885,2.238-3.757C-107.004,83.715-107.032-157.966-107.032-157.966z"/>
</g>
<g id="Warstwa_24_kopia" display="none">
	
		<rect x="-343.291" y="238.043" display="inline" fill-rule="evenodd" clip-rule="evenodd" fill="#009FE3" fill-opacity="0.7" width="26.667" height="38.667"/>
	<path display="inline" opacity="0.4" fill="#A5966C" d="M-107.585-157.794h-0.333h-37.56h-0.333l0.5,234.142
		c-6.701,3.915-13.398,7.833-20.096,11.751c-10.46,6.118-20.866,12.331-31.367,18.376c-8.94,5.146-18.017,10.053-26.967,15.18
		c-8.003,4.584-15.946,9.276-23.849,14.031c-1.709,1.029-2.993,0.978-4.69-0.023c-4.345-2.563-8.865-4.828-13.232-7.355
		c-14.399-8.332-28.771-16.714-43.135-25.105c-9.354-5.463-18.619-11.081-28.031-16.44c-5.847-3.33-11.742-6.576-17.633-9.828
		l0.167-234.727h-0.333h-37.56h-0.333c0,0-0.028,241.681-0.04,254.53c-0.002,1.872,0.658,2.908,2.239,3.757
		c4.864,2.612,9.72,5.245,14.485,8.032c0.07,0.041,0.139,0.083,0.208,0.124c0.16,0.094,0.318,0.19,0.478,0.285
		c6.944,4.082,13.76,8.382,20.751,12.381c9.585,5.483,19.334,10.68,28.93,16.145c8.202,4.67,16.275,9.565,24.426,14.326
		c12.518,7.313,25.04,14.616,37.588,21.877c3.806,2.202,7.745,4.176,11.53,6.409c0.644,0.38,1.219,0.593,1.787,0.649
		c0.229,0,0.456-0.006,0.685-0.007c0.511-0.07,1.035-0.272,1.616-0.622c6.886-4.143,13.808-8.232,20.782-12.226
		c7.8-4.467,15.709-8.743,23.499-13.228c9.15-5.268,18.218-10.682,27.333-16.013c11.624-6.798,23.229-13.629,34.899-20.348
		c5.365-3.089,10.747-6.149,16.139-9.188c0.156-0.088,0.313-0.174,0.469-0.262c4.57-2.575,9.146-5.136,13.735-7.676
		c2.131-1.18,3.022-2.492,3.018-5.034c-0.009-5.635-0.009-11.27-0.013-16.904c0.025,0.285,0.055,0.597,0.079,0.94V40.64
		c0.099-2.623,0.167-5.267,0.167-7.955V-157.794z"/>
</g>
<g id="Warstwa_24" display="none">
	<path display="inline" opacity="0.4" fill="#A5966C" d="M-106.996-157.953h-0.022v-0.125h-0.333h-37.561h-0.334
		c0,0-0.02,174.782-0.033,234.975c-5.816,3.211-11.636,6.417-17.41,9.705c-9.412,5.359-18.678,10.977-28.031,16.44
		c-14.365,8.392-28.736,16.773-43.135,25.105c-4.368,2.527-8.889,4.792-13.232,7.355c-1.697,1.001-2.981,1.052-4.691,0.023
		c-7.902-4.754-15.846-9.447-23.849-14.031c-8.95-5.126-18.027-10.033-26.968-15.18c-10.5-6.045-20.906-12.258-31.367-18.376
		c-6.697-3.917-19.782-11.18-19.782-11.18l0.187-234.712h-0.334h-37.56h-0.333c0,0,0.241,248.275,0.232,253.91
		c-0.004,2.542,0.887,3.854,3.018,5.034c4.59,2.54,9.166,5.101,13.735,7.676c0.155,0.088,0.313,0.174,0.469,0.262
		c5.393,3.04,10.774,6.1,16.14,9.188c11.67,6.719,23.275,13.55,34.898,20.348c9.115,5.331,18.184,10.745,27.334,16.013
		c7.789,4.484,15.699,8.76,23.498,13.228c6.975,3.994,13.896,8.083,20.782,12.226c0.581,0.35,1.104,0.552,1.616,0.622
		c0.229,0.001,0.455,0.007,0.684,0.007c0.568-0.057,1.144-0.27,1.787-0.649c3.786-2.233,7.725-4.207,11.531-6.409
		c12.547-7.261,25.07-14.564,37.588-21.877c8.15-4.76,16.225-9.655,24.426-14.326c9.596-5.465,19.345-10.662,28.93-16.145
		c6.99-3.999,13.807-8.299,20.751-12.381c0.159-0.094,0.317-0.191,0.478-0.285c0.07-0.041,0.139-0.083,0.209-0.124
		c4.764-2.787,9.62-5.42,14.484-8.032c1.581-0.849,2.24-1.885,2.238-3.757C-106.969,83.729-106.996-157.953-106.996-157.953z"/>
</g>
</svg>
