<?xml version="1.0" encoding="utf-8"?>
<!-- Generator: Adobe Illustrator 26.5.0, SVG Export Plug-In . SVG Version: 6.00 Build 0)  -->
<svg version="1.1" id="Layer_1" xmlns="http://www.w3.org/2000/svg" xmlns:xlink="http://www.w3.org/1999/xlink" x="0px" y="0px"
	 viewBox="0 0 1016.7 320.1" style="enable-background:new 0 0 1016.7 320.1;" xml:space="preserve">
<style type="text/css">
	.st0{fill:#4A4A4A;}
</style>
<g>
	<path class="st0" d="M255.7,74.7c0,0,29.2,4.3,38.5,27.7h12l-28.4-74.6h-11L238,102.4h6.9L255.7,74.7z M269.8,36.9l16.5,45.9
		c-10.3-10.3-28.4-14.1-28.4-14.1L269.8,36.9z"/>
	<path class="st0" d="M424.6,77.8c4.8-1.9,8.8-3.3,13.9-3.6l11.2,28.2h11.7L433,27.8h-11l-28.7,74.6h6.9
		C404.6,91.9,414.1,82.3,424.6,77.8z M425.4,37.2l11.2,31.5c-6.5,0.7-12,2.4-17.7,5.5c-3.3,1.7-7.6,5-10.5,7.6L425.4,37.2z"/>
	<path class="st0" d="M352.5,104.1c11,0,23.2-2.6,30.4-7.6V68.7h-31.1v6h19.6v21.8c-4.3,2.2-9.6,3.1-13.9,3.1
		c-18.9,0-32.5-17.4-32.5-34.2c0-17.7,10.8-33.9,29.6-33.9c0,0,17-0.7,22.7,16h2.2V47V35c0,0-1-0.7-2.9-1.9
		c-1.2-0.7-2.6-1.4-4.1-2.2c-6.2-2.6-12.9-3.8-20.8-3.8c-25.3,0-40.2,16.3-40.2,39.4C311.6,90,328.8,104.1,352.5,104.1z"/>
	<path class="st0" d="M197.1,66.6l8.6,3.1C215,73,220,78.5,220,86.4c0,12.4-16.5,13.4-16.5,13.4c-1.2,0-2.2,0-3.1-0.2
		c-5-0.7-14.6-3.6-17.7-14.6l-0.5-1.9h-2.4v14.3c0,0,10.3,6.7,23.4,6.7c15.3,0,27-7.6,27-22.2c0.2-14.1-11-19.4-20.1-22.7l-8.1-2.9
		c-9.3-3.8-12.2-8.4-12.2-14.1c0-6.5,6-10.5,14.8-10.5c1.2,0,2.2,0,3.3,0.2c0,0,11.5,1,15.3,14.3l0.5,1.7h2.2V33.8
		c0,0-9.6-6.7-22.5-6.7c-12.9,0.5-23.9,7.4-23.9,19.4C179.6,55.8,184.2,61.8,197.1,66.6z"/>
	<path class="st0" d="M468.3,114.3c-10.7-0.2-18,8.2-23.5,16.6c-7.2,11.2-11.4,21.8-16.2,34.3c-0.2-3-0.2-6.4-0.1-9.6
		c0.4-18.3,0.3-22.5,0.1-28.4c-0.1-5.6-0.8-9-4.7-9.1c-7-0.1-11.4,0.6-13.7,7c-2.7,7.7-1.1,44.8,0.7,70.9c-0.8,0.8-1.2,1.7-1.2,1.7
		c-6.8,14.5-21.4,27.6-38.2,26.6c-15.5-0.9-24-16-24.9-30.2c3.7,0.9,8.4,1.9,14.2,2.2c18.9,0.7,34.1-12.7,35.3-31.6
		c1.1-17.6-9.7-35.6-28.2-36.5c-30.4-1.5-43.3,36.3-45.4,60.4c-0.3,3.8-0.2,7.5,0.3,11.1c-6,11.6-14.9,22.4-27.1,23.1
		c-19.1,1.1-25.7-21.2-26.1-35.4c-0.4-13.8,3.4-52.3,22.3-54.6c4.1-0.5,6,3.8,6.1,5.1c0.4,8.3-6.1,14-6.5,21.2
		c-0.2,3.1,7.9,8.4,12.1,7.6c7.1-1.3,8.5-16.2,8.3-22.6c-0.5-11.3-9.8-23-22.1-21.8c-30.8,3.1-44,44.9-43.7,70.3
		c0.3,24.5,18,46.5,43.8,44.6c15.6-1.1,27.4-13.2,35.5-27.3c6.2,16.7,21.3,29.1,40.9,30c20.1,0.9,36.1-14.5,45.5-31.3
		c0.2,3.1,0.5,5.7,0.7,7.9c-5.6,22.4-13.1,58.9-13.1,83.1c0,10.8,4.6,20.3,15.7,20.5c17.3,0.3,25.2-15.1,25.2-35.5
		c0-25.3-4.9-63.9-9.1-89.8c4.5-14.2,16.4-62.8,33.2-62.5c11.3,0.2,15.5,24,15.2,44.6c-0.2,10.3-1.4,50.6-18.2,50.6
		c-6,0-11.5-3.1-15.1-6.8c-1.6-1.7-2.7-2-3.8-2c-2.2,0-3.9,2.5-3.9,4.1c0,1.1,0.5,2.2,1.6,3.6c6,7.2,15.3,12.2,24.9,12.4
		c27.4,0.5,39.2-37.8,39.8-60.6C505.4,156.6,499.8,114.9,468.3,114.3z M368.1,139.5c5.7,0.6,7.7,14.2,7.2,20.5
		c-0.9,10.3-5.8,26-18.4,25.8c-4.1-0.1-9.5-0.4-10-1.2C344.6,181.5,355.1,138,368.1,139.5z M417.4,299.9c-0.1,6.6-1,10.4-3.2,10.4
		c-2.2,0-4.3-2.1-4-11.3c0.4-11.3,3.4-23,5.8-34.2C416.9,277.1,417.5,287.7,417.4,299.9z"/>
	<path class="st0" d="M556.8,57c2.4-0.9,4.9-1.8,7.4-2.6c33.4-11.1,60.6-3.5,66.2-0.9c8.2,3.7,8.9-23.4-2.6-24.5
		c-0.2,0-0.5,0-0.7-0.1c0,0,0,0,0,0l0,0c-0.2,0-0.4,0-0.6,0c-23.6,2.1-45.2,6.3-65.2,12.8c2.9-9.6,6.2-19.6,10-30
		c2.8-7.7-1.8-10.7-6.2-11.4c-5.6-1-7.4,0.1-9.5,4c-2.9,5.3-9.9,22-16.9,46.1c-20.8,9.2-39.8,21.3-57.6,36.5c-2.7,2.3-3,6.4-0.7,9.1
		c0.2,0.2,0.4,0.4,0.5,0.6c5.3,5.4,12,6.1,12.8,3.2c1.3-4.7,2.8-8.8,8.9-13.5c10.1-7.4,20.6-13.9,31.6-19.5
		c-7.3,29.1-13.4,65.6-13.4,104.5c0,40.8,3.6,60.6,8.3,79.5c3.6,14.7,16.5,15.7,15.3-2.9C539.8,178.4,538.2,125.5,556.8,57z"/>
	<path class="st0" d="M593.7,76.8c-8.7-1-15.2,8-16.1,17.2c-0.8,8.7,4.3,14.6,9.8,15.2c8.7,1,15.1-8.3,15.8-17.5
		C603.9,84.7,600.4,77.6,593.7,76.8z"/>
	<path class="st0" d="M652.2,114.5c-15.3-0.4-38.9,6.9-39.6,27.6c-0.1,3.2,0.6,6.6,2.1,9.4c-4.7,8.5-6.8,18-7.2,27.7
		c-0.4,10,1.4,19.8,5.2,28.2c-5.3,10.1-13,19.8-21.5,19c-9.4-1-9.1-30.1-9-38.9c0.2-18,4.6-40.4,10.2-58.3c1.6-5-1.3-7.5-4.5-7.7
		c-10.7-0.7-16.7,0.1-21.3,11c-6.2,14.8-8.8,41.1-9,51.1c-0.3,19.8,5.9,57.4,30,58.5c12.8,0.6,22.7-13.4,29.3-27
		c6.8,9.9,17.2,16.5,30.6,16.9c30,0.8,43.2-29,44.5-55C693.4,148.8,682.4,115.3,652.2,114.5z M670.9,167.3
		c-0.3,13.6-1.4,51.7-22.9,51.1c-18.5-0.5-19.2-29.1-19-42.9c0.1-4.8,0.2-8.4,0.6-11.7c1.3,0.4,2.6,0.4,4.1,0.5
		c2.8,0.2,5.5-0.8,5.5-3.7c0.1-4.4-6.2-4.3-5.5-16.2c0.5-9.3,8-18.3,17.9-18C669.6,126.9,671.2,153.9,670.9,167.3z"/>
	<path class="st0" d="M263.1,250.6c-15.6-14.7-30-39.5-41.4-63.3C232.1,165.1,241,144,243,140c4.5-8.9,3.4-16.4-4.2-19.5l0,0
		c-0.1,0-0.2-0.1-0.3-0.1c-3-1.2-6.4,0.3-7.6,3.3c-1.5,3.9-3,7.7-4.5,11.6c-4.1,10.7-8.3,21.5-13.3,33.2c-10-23-16.5-41.7-17.6-44.5
		c-2.9-7.4-21.3-8.7-29.1-6.4c-0.6,0.1-1.2,0.4-1.8,0.7c0,0,0,0,0,0c0,0-0.1,0-0.1,0.1l0,0c-2.6,1.7-3.5,5.2-1.9,7.9
		c4.3,7.3,9.7,16.8,15.3,26.9c8.1,14.5,16,28.4,23.6,41.2c-5.6,11.7-12.2,24.6-20.3,39.1c0,0,0,0,0,0c-0.6,1-1.1,1.9-1.5,2.7
		c0,0,0,0,0,0.1c-1.6,3.5-0.8,5.4,2.2,7.2c0.1,0.1,0.2,0.1,0.3,0.2c0.1,0,0.1,0,0.2,0.1c0.1,0,0.1,0.1,0.2,0.1
		c0.2,0.1,0.3,0.1,0.4,0.2c0.9,0.3,1.8,0.4,2.6,0.4l0,0c0.8,0,1.6-0.3,2.6-0.9c0,0,0.1,0,0.1-0.1c5.7-3.7,14.1-17.4,22.5-33.8
		c17.2,27.1,32.9,46.5,46.7,51c0.6,0.2,1.2,0.3,1.8,0.3c2.4,0,4.7-1.6,5.5-4C265.5,254.5,264.8,252.1,263.1,250.6z"/>
	<path class="st0" d="M775.6,130.1L775.6,130.1c-0.6,0-1.2,0-1.8,0c-25.4,1.3-39.6,34.5-47.9,60.5c-0.3-21.8,0.5-49.7,2-61.8
		c0.4-3.3-1.9-6.3-5.2-6.7c-0.2,0-0.4,0-0.6,0v0c-8.2,0-22.5,2.2-22.5,9.6c0,7.1,1.5,86.6,21.1,92.1c0.7,0.2,1.4,0.3,2.2,0.3
		c4.8-0.2,6.5-5,7.5-7.8c0.9-2.6,2-6.2,3.3-10.3c4.6-15.3,12.9-41.7,25.2-55.3l0,0c13-12.5,20.1,0.8,20.4,24.4c0,2.2-0.1,4.5,0,6.8
		l0,0c0,16.6-5.1,66,21.8,66c1.2,0,2.3-0.3,3.4-1c2.3-1.6,3.2-4.6,2.2-7.1l0,0c-8-19.3,0.6-57.8,0.7-78.5
		C807.4,143,797.2,130.1,775.6,130.1z"/>
	<path class="st0" d="M172.8,210.4c-2.1-1.6-4.5,1.5-6,3.5c-21.5,28.4-42.6,41.4-70.4,41.4c-25,0-46.9-11.9-46.9-29.9
		c0-30.1,28.9-61.5,81.5-86.6c0.4-0.2,0.7-0.4,1-0.6c20.5,1,16.4-7.3,13.5-16.8c-3-10-10.4-7.7-19.9-2
		c-36.2-0.4-94.6-19.6-94.6-59.6c0-30.5,36-44.7,69.8-44.7c30.8,0,53.9,8.2,55,24.8c0.3,3.9,0,6.1-0.3,7.5c-0.2,0.7-0.4,1.4-0.6,1.9
		c0,0,0,0,0,0c0,0,0,0,0,0c-0.7,2.7-0.4,3.9,1.1,4.8c2.2,1.2,4.7,0.9,6.4-2.5c0.1-0.2,0.2-0.5,0.4-0.8c0-0.1,0-0.1,0.1-0.2
		c0,0,0,0,0,0c1.1-3,1.2-8,1.2-12.6C164,18.4,148-0.2,99.5,0.3C49.4,0.7,0,27,0,57.5c0,35.3,41.7,62.2,82.4,71.9c0,0,0,0,0,0
		c7.5,1.8,14.2,3.2,20.1,4.4c-28.8,16-86.2,51.6-86.2,98.7c0,32.5,38.5,47.5,62.3,47.5c46.1,0,76.7-22.7,95.2-61.7
		C174.7,216.4,176.1,212.9,172.8,210.4z"/>
	<path class="st0" d="M1011.6,15.8c-6.3-9-17.7-14-28.8-12.8c-16.4,1.8-30.9,19.4-43.1,52.3c-2,5.3-3.8,10.9-5.6,16.8
		c-1,0-2,0-3.1,0l0,0c-9.2-0.1-10.7,9.4-2.2,10c0.8,0,1.6,0.1,2.4,0.1c-5.5,21-9.7,44.6-12,68c-2.2,22.3-2.2,42.4-0.3,59.7
		c-4.5,6.5-10.1,11.6-15.9,10.8c-7.3-1.1-9-15.8-8.9-23c0.1-13.2,4.1-25.4,6.5-36.3c0.7-3.3-1.3-4.8-4.1-4.8
		c-19.4,0.1-22,16.6-24.8,30.7c-1.9,9.8-7.6,37.4-16.6,37.4c-8.4,0-12.1-22.7-12-31.1c0.2-16.2,3.8-62.6,28.8-61.4
		c7.3,0.3,10.8,5.2,10.8,11c0,3.6-0.5,5.5-0.5,7.4c0,1.1,0.6,3.1,3,3.2c3.3,0.2,12.7-2.4,12.6-8.7c-0.1-13.5-13.1-24.5-25.7-24.5
		c-40,0.2-54.6,39-54.4,71.4c0.1,19.9,11.1,46.6,33.3,46.5c14.9-0.1,22-13.7,24.9-25.9c3.2,11.8,11.2,23.9,24.1,24.9
		c8.4,0.6,15.4-5.6,20.9-13.8c6.5,34.1,21.9,54.7,44.6,56.9c16.6,1.6,30.1-11.5,32-31.2c0.6-5.7-2.8-10.3-6.9-10.7
		c-3.8-0.4-6,2.1-6,5c-0.1,8.1-3.5,28.3-18.1,27c-28.6-2.8-28.9-114.1-13.3-189.5c2.3-0.3,4.5-0.6,6.7-1
		c25.8-4.7,45.2-17.2,53.4-34.3C1018.4,35.5,1017.7,24.5,1011.6,15.8z M956.1,68.5c8.1-32.9,19.5-56.2,32.8-55.5
		c1.1,0.1,2.1,0.4,3.1,0.7C1006,19.2,994.2,56.5,956.1,68.5z"/>
</g>
</svg>
